<svg width="184" height="74" viewBox="0 0 184 74" fill="none" xmlns="http://www.w3.org/2000/svg">
<path d="M11.7973 55.5714V55.2163C12.0098 55.1453 12.1869 55.0743 12.2577 54.9323C12.3286 54.8612 12.3994 54.7192 12.3994 54.5417C12.3994 54.4706 12.3994 54.3996 12.3994 54.3286C12.3994 54.2576 12.3994 54.1866 12.3994 54.1156L8.68032 43.676C8.53864 43.2144 8.32612 42.9303 8.21986 42.7883C8.1136 42.6463 7.83024 42.5042 7.54688 42.4332V42.0781H11.8681V42.4332C11.6556 42.5042 11.4785 42.5752 11.4077 42.7173C11.3368 42.7883 11.266 42.9303 11.266 43.0724C11.266 43.1434 11.266 43.1434 11.266 43.2854C11.266 43.3564 11.3368 43.4275 11.3368 43.5695L13.9933 51.5589L16.579 43.5695C16.579 43.4985 16.6498 43.4985 16.6498 43.3564C16.6498 43.2854 16.6498 43.2144 16.6498 43.1434C16.6498 42.9303 16.579 42.7883 16.5081 42.7528C16.4373 42.7173 16.2956 42.5397 16.0477 42.4687V42.1136H20.6523V42.4687C20.4398 42.5397 20.2627 42.6108 20.1918 42.7528C20.121 42.8238 20.0501 42.9658 20.0501 43.1079C20.0501 43.1789 20.0501 43.1789 20.0501 43.3209C20.0501 43.3919 20.121 43.463 20.121 43.605L22.7066 51.4169L25.2923 43.605C25.2923 43.534 25.2923 43.534 25.2923 43.3919C25.2923 43.3209 25.2923 43.2499 25.2923 43.1789C25.2923 42.9658 25.2215 42.8238 25.1506 42.7883C25.0798 42.7173 24.9381 42.5752 24.6902 42.5042V42.1491H28.8343V42.5042C28.4801 42.5752 28.303 42.7173 28.1613 42.8948C28.0196 43.0369 27.878 43.3564 27.7009 43.7825L24.0526 54.2221C24.0526 54.2931 24.0526 54.3641 23.9818 54.4351C23.9818 54.5061 23.9818 54.5772 23.9818 54.6482C23.9818 54.8612 24.0526 55.0033 24.1234 55.0388C24.1943 55.1098 24.336 55.2518 24.5839 55.3228V55.6779H20.3335V55.2873C20.6169 55.2163 20.7231 55.1453 20.794 55.0033C20.8648 54.9323 20.9356 54.7902 20.9356 54.6127C20.9356 54.5417 20.9356 54.5417 20.9356 54.4706C20.9356 54.3996 20.9356 54.3286 20.8648 54.2576L17.9604 45.4514L15.0559 54.2576C15.0559 54.3286 14.9851 54.3996 14.9851 54.4706C14.9851 54.5417 14.9851 54.6127 14.9851 54.6837C14.9851 54.8967 15.0559 55.0388 15.1268 55.0743C15.1976 55.1098 15.4101 55.2873 15.5872 55.3584V55.7134H11.7973V55.5714Z" fill="#58595B"/>
<path d="M30.8203 54.7527L31.9183 52.0541L32.2725 52.1961C32.2725 52.1961 32.2725 52.2671 32.2017 52.2671C32.2017 52.3382 32.2017 52.4092 32.2017 52.4092C32.2017 52.6932 32.5913 53.0128 33.406 53.2969C34.2206 53.652 35.1061 53.7585 35.9208 53.7585C36.8063 53.7585 37.4793 53.6165 38.0106 53.3679C38.5419 53.0838 38.7544 52.7643 38.7544 52.3382C38.7544 51.7345 37.8689 51.3794 36.0979 51.2374C35.4249 51.1664 34.8936 51.1664 34.4686 51.0954C33.2643 50.9533 32.3788 50.6337 31.7767 50.1366C31.1745 49.604 30.8912 48.9293 30.8912 47.9706C30.8912 46.8343 31.3516 45.9466 32.2371 45.2719C33.1226 44.5973 34.3269 44.2422 35.7437 44.2422C36.7709 44.2422 37.7626 44.4552 38.7898 44.8458C39.0023 44.9169 39.0732 44.9169 39.144 44.9169C39.2149 44.9169 39.4274 44.9879 39.7462 45.2009C40.0295 45.414 40.2775 45.485 40.4191 45.485C40.4191 45.485 40.49 45.485 40.5608 45.414C40.6317 45.343 40.7025 45.343 40.7733 45.2719L41.0567 45.414L39.7816 48.1836L39.4274 47.9706V47.8996V47.8286C39.4274 47.4735 39.0378 47.1539 38.2939 46.7988C37.4793 46.4437 36.6646 46.2662 35.85 46.2662C35.1061 46.2662 34.504 46.4082 34.0081 46.6213C33.5122 46.8343 33.3351 47.1539 33.3351 47.509C33.3351 48.0416 34.0081 48.3967 35.3541 48.4677C36.3813 48.5387 37.1959 48.6098 37.8689 48.7518C38.9669 48.9648 39.817 49.3554 40.3837 49.8881C40.915 50.4207 41.1984 51.1664 41.1984 51.9831C41.1984 53.0838 40.7379 53.936 39.7816 54.6817C38.8252 55.3564 37.5501 55.7825 35.9916 55.7825C34.504 55.7825 33.158 55.4274 31.8121 54.8238C31.5287 54.6817 31.4225 54.6107 31.3516 54.6107C31.2808 54.6107 31.2099 54.6107 31.1391 54.6817C31.0683 54.6817 31.0683 54.7527 31.0683 54.8238L30.8203 54.7527Z" fill="#58595B"/>
<path d="M56.0345 50.9524L56.3178 50.7394L58.0888 53.6511L57.8055 53.8641C57.7346 53.7931 57.6638 53.7221 57.5929 53.6511C57.5221 53.5801 57.5221 53.5801 57.4513 53.5801C57.3804 53.5801 57.0971 53.7221 56.7074 53.9707C54.8302 55.178 52.9883 55.8171 51.2173 55.8171C49.1984 55.8171 47.4274 55.1425 46.0814 53.8641C44.7355 52.5148 44.0625 50.8814 44.0625 48.9284C44.0625 46.9045 44.7355 45.2711 46.1523 43.9217C47.4982 42.6434 49.3401 41.9688 51.5715 41.9688C52.705 41.9688 53.8738 42.1818 55.0073 42.5724C56.1407 42.963 56.7783 43.176 56.8491 43.176C56.92 43.176 57.0616 43.176 57.2033 43.105C57.2742 43.105 57.4158 43.105 57.5575 43.034L57.8409 43.2471L56.0699 46.3008L55.7865 46.0878C55.7865 46.0878 55.7865 46.0878 55.7865 46.0167C55.7865 45.9457 55.7865 45.9457 55.7865 45.9457C55.7865 45.5551 55.3261 45.2 54.4406 44.8094C53.4842 44.4188 52.5633 44.2058 51.5361 44.2058C50.1902 44.2058 49.0213 44.6674 48.1358 45.4841C47.2503 46.3008 46.7898 47.4371 46.7898 48.7509C46.7898 50.1002 47.2503 51.272 48.1358 52.1597C49.0213 52.9764 50.1547 53.438 51.6424 53.438C52.7404 53.438 53.7322 53.225 54.7593 52.6924C55.7865 52.2307 56.3178 51.8046 56.3178 51.4851C56.3178 51.414 56.3178 51.343 56.3178 51.272C56.1053 51.0945 56.1053 51.0235 56.0345 50.9524Z" fill="#58595B"/>
<path d="M69.4628 45.6633C69.4628 45.3792 69.3919 45.2727 69.3211 45.1306C69.2503 45.0596 69.1086 44.9176 68.8606 44.9176V44.5625H72.5089V44.9176C72.2964 44.9886 72.1193 45.0596 72.0484 45.1306C71.9776 45.2017 71.9068 45.4147 71.9068 45.6633V51.4867C71.9068 53.0491 71.5172 54.1853 70.7025 54.8245C69.8878 55.4992 68.5419 55.8542 66.6292 55.8542C64.7519 55.8542 63.3706 55.4992 62.6267 54.8245C61.8121 54.1498 61.4225 53.0491 61.4225 51.4867V45.6633C61.4225 45.3792 61.3516 45.2727 61.2808 45.1306C61.2099 45.0596 61.0683 44.9176 60.8203 44.9176V44.5625H64.3977V44.9176C64.1852 44.9886 64.0435 45.0596 63.9373 45.1306C63.8664 45.2017 63.7956 45.4147 63.7956 45.6633V51.0251C63.7956 51.9838 64.0081 52.7295 64.4686 53.1201C64.8582 53.5107 65.602 53.7237 66.6292 53.7237C67.5855 53.7237 68.3293 53.5107 68.7898 53.0491C69.1794 52.6585 69.4628 51.9128 69.4628 50.883V45.6633Z" fill="#58595B"/>
<path d="M83.3819 44.5987C84.5862 44.5987 85.4717 44.8828 86.1447 45.3444C86.8177 45.877 87.101 46.5517 87.101 47.4394C87.101 47.901 86.9594 48.3981 86.7468 48.7177C86.5343 49.0373 86.1447 49.3924 85.6488 49.6764C86.251 50.0315 86.7468 50.3511 86.9948 50.8127C87.2427 51.2743 87.3844 51.7715 87.3844 52.3751C87.3844 53.4049 86.9948 54.1505 86.251 54.7542C85.5071 55.2868 84.4091 55.5709 83.0632 55.5709H76.1562V55.2158C76.3688 55.1448 76.5459 55.0738 76.6167 55.0027C76.6876 54.9317 76.7584 54.7187 76.7584 54.4701V45.593C76.7584 45.3089 76.6876 45.2024 76.6167 45.0603C76.5459 44.9893 76.4042 44.8473 76.1562 44.8473V44.4922H83.3465L83.3819 44.5987ZM82.6381 46.4807H79.2378V48.7177H82.8861C83.4882 48.7177 83.9841 48.6467 84.232 48.4336C84.5862 48.2206 84.6925 47.972 84.6925 47.5459C84.6925 47.1198 84.5508 46.8713 84.232 46.6582C84.0195 46.6227 83.4528 46.4807 82.6381 46.4807ZM82.461 50.6707H79.2732V53.6534H82.3902C83.4174 53.6534 84.1612 53.5114 84.48 53.2983C84.8696 53.0853 85.0821 52.6947 85.0821 52.162C85.0821 51.6294 84.8696 51.2743 84.48 51.0258C84.0549 50.8127 83.3819 50.6707 82.461 50.6707Z" fill="#58595B"/>
<path d="M100.382 44.5958C100.665 44.5958 100.771 44.5248 100.842 44.4538C100.913 44.3828 100.984 44.2407 101.055 43.9922H101.409V47.401H101.055C100.984 47.1169 100.913 47.0104 100.842 46.9394C100.771 46.8684 100.559 46.7974 100.382 46.7974H94.1477V48.9634H98.0085C98.2918 48.9634 98.3981 48.8924 98.4689 48.8214C98.5398 48.7503 98.6106 48.6083 98.6814 48.3597H99.0356V51.4845H98.6814C98.6106 51.2715 98.5398 51.0939 98.4689 51.0229C98.3981 50.9519 98.1856 50.8809 98.0085 50.8809H94.1477V53.402H100.63C100.913 53.402 101.019 53.331 101.09 53.2599C101.161 53.1889 101.232 52.9759 101.303 52.7983H101.657V56.2427H101.303C101.232 55.9586 101.161 55.8521 101.09 55.7811C101.019 55.71 100.807 55.639 100.63 55.639H91.1016V55.2839C91.3141 55.2129 91.4912 55.1419 91.562 55.0709C91.6329 54.9289 91.7037 54.7868 91.7037 54.5383V45.6611C91.7037 45.377 91.6329 45.2705 91.562 45.1285C91.4912 45.0574 91.2787 44.9154 91.1016 44.9154V44.5603H100.382V44.5958Z" fill="#58595B"/>
<path d="M112.957 44.5218C112.674 44.5218 112.567 44.5928 112.496 44.6638C112.426 44.7348 112.355 44.9479 112.284 45.1254H111.93V41.5391H112.213C112.284 41.8231 112.355 41.9297 112.426 42.0007C112.496 42.0717 112.709 42.1427 112.886 42.1427H123.37C123.654 42.1427 123.76 42.0717 123.831 42.0007C123.902 41.9297 123.972 41.7166 124.043 41.5391H124.398V45.1965H124.043C123.972 44.9124 123.902 44.8059 123.831 44.7348C123.76 44.6638 123.547 44.5928 123.37 44.5928H119.51V54.5707C119.51 54.8548 119.58 54.9613 119.651 55.1034C119.722 55.1744 119.864 55.2454 120.112 55.3164V55.6715H116.251V55.2809C116.463 55.2099 116.641 55.1389 116.711 55.0679C116.782 54.9968 116.853 54.7838 116.853 54.5352V44.5573H112.957V44.5218Z" fill="#2193D2"/>
<path d="M136.194 44.5958C136.477 44.5958 136.584 44.5248 136.655 44.4538C136.725 44.3828 136.796 44.2407 136.867 43.9922H137.221V47.401H136.867C136.796 47.1169 136.725 47.0104 136.655 46.9394C136.584 46.8684 136.371 46.7974 136.194 46.7974H129.96V48.9634H133.821C134.104 48.9634 134.211 48.8924 134.281 48.8214C134.352 48.7503 134.423 48.6083 134.494 48.3597H134.848V51.4845H134.494C134.423 51.2715 134.352 51.0939 134.281 51.0229C134.211 50.9519 133.998 50.8809 133.821 50.8809H129.96V53.402H136.442C136.725 53.402 136.832 53.331 136.903 53.2599C136.973 53.1889 137.044 52.9759 137.115 52.7983H137.469V56.2427H137.115C137.044 55.9586 136.973 55.8521 136.903 55.7811C136.832 55.71 136.619 55.639 136.442 55.639H126.914V55.2839C127.127 55.2129 127.304 55.1419 127.375 55.0709C127.445 54.9289 127.516 54.7868 127.516 54.5383V45.6611C127.516 45.377 127.445 45.2705 127.375 45.1285C127.304 45.0574 127.091 44.9154 126.914 44.9154V44.5603H136.194V44.5958Z" fill="#2193D2"/>
<path d="M150.396 48.0402L150.113 47.8982V47.8272V47.7561C150.113 47.4721 149.759 47.1525 149.015 46.8684C148.271 46.5133 147.527 46.4068 146.713 46.4068C145.579 46.4068 144.694 46.7619 143.95 47.4366C143.277 48.1112 142.923 48.9989 142.923 50.0997C142.923 51.2005 143.277 52.0527 143.95 52.7629C144.623 53.4375 145.579 53.7216 146.713 53.7216C147.598 53.7216 148.484 53.5085 149.227 53.1179C150.042 52.7273 150.432 52.4433 150.432 52.1592C150.432 52.1592 150.432 52.0882 150.432 52.0172C150.432 51.9462 150.361 51.8751 150.361 51.8041L150.644 51.6621L152.203 54.1122L151.919 54.2542C151.848 54.1832 151.778 54.1122 151.707 54.1122C151.636 54.1122 151.636 54.1122 151.565 54.1122C151.494 54.1122 151.211 54.2542 150.892 54.4673C149.334 55.426 147.775 55.9586 146.288 55.9586C144.517 55.9586 143.1 55.426 141.966 54.3252C140.833 53.2245 140.195 51.8041 140.195 50.1707C140.195 48.4663 140.797 47.117 141.966 46.0162C143.1 44.9154 144.658 44.3828 146.5 44.3828C147.456 44.3828 148.377 44.5248 149.405 44.8444C150.361 45.1995 150.892 45.306 151.034 45.306C151.105 45.306 151.176 45.306 151.246 45.306C151.317 45.306 151.459 45.235 151.53 45.235L151.813 45.3771L150.396 48.0402Z" fill="#2193D2"/>
<path d="M157.764 54.4701C157.764 54.7542 157.835 54.8607 157.906 55.0027C157.977 55.0738 158.119 55.2158 158.366 55.2158V55.5709H154.789V55.2158C155.002 55.1448 155.143 55.0738 155.25 55.0027C155.32 54.9317 155.391 54.7187 155.391 54.4701V45.593C155.391 45.3089 155.32 45.2024 155.25 45.0603C155.179 44.9893 155.037 44.8473 154.789 44.8473V44.4922H158.366V44.8473C158.154 44.9183 157.977 44.9893 157.906 45.0603C157.835 45.2024 157.764 45.3444 157.764 45.593V48.5757H163.432V45.593C163.432 45.3089 163.361 45.2024 163.29 45.0603C163.219 44.9893 163.077 44.8473 162.829 44.8473V44.4922H166.478V44.8473C166.265 44.9183 166.123 44.9893 166.017 45.0603C165.946 45.1313 165.876 45.3444 165.876 45.593V54.4701C165.876 54.7542 165.946 54.8607 166.017 55.0027C166.088 55.0738 166.23 55.2158 166.478 55.2158V55.5709H162.829V55.2158C163.113 55.1448 163.219 55.0738 163.29 55.0027C163.361 54.8607 163.432 54.7187 163.432 54.4701V50.7417H157.764V54.4701Z" fill="#2193D2"/>
<path d="M52.6006 32.2404L60.5346 18.463L60.9243 17.8594H61.6681H77.43H78.1738L78.528 18.463L86.4975 32.0983L86.8517 32.702L86.4975 33.3056L82.5659 40.2298H79.7323L84.0181 32.702L76.757 20.345H62.3411L55.1154 32.844L59.4366 40.2298H56.5322L52.6006 33.4477L52.2109 32.844L52.6006 32.2404Z" fill="#2193D2"/>
<path d="M5.35056 32.2404L13.3555 18.463L13.6743 17.8594H14.3827H30.2154H30.9592L31.278 18.463L39.2829 32.0983L39.6017 32.702L39.2829 33.3056L35.3513 40.2298H32.5177L36.7681 32.702L29.5424 20.345H15.1265L7.86538 32.844L12.1866 40.2298H9.28218L5.35056 33.4477L4.96094 32.844L5.35056 32.2404Z" fill="#2193D2"/>
<path d="M28.9756 18.1779L36.9805 4.40052L37.2993 3.79688H37.9722H53.805H54.5488L54.903 4.40052L62.8725 18.0358L63.2267 18.675L62.8725 19.2786L58.9763 26.1318H56.1073L60.3931 18.675L53.132 6.24697H38.7161L31.4904 18.817L35.8116 26.1318H32.9072L28.9756 19.4207L28.5859 18.817L28.9756 18.1779Z" fill="#2193D2"/>
<path d="M28.9756 19.3524L36.9805 33.1297L37.2993 33.8044H37.9722H53.805H54.5488L54.903 33.1297L62.8725 19.5654L63.2267 18.8553L62.8725 18.2516L58.9763 11.3984H56.1073L60.3931 18.8553L53.132 31.2833H38.7161L31.4904 18.7487L35.8116 11.3984H32.9072L28.9756 18.1096L28.5859 18.7487L28.9756 19.3524Z" fill="#2193D2"/>
<path d="M80.3359 66.582V61.8594H81.3631V66.582C81.3631 68.4995 82.1778 69.1031 83.205 69.1031C84.2676 69.1031 85.1176 68.4995 85.1176 66.582V61.8594H86.1094V66.582C86.1094 69.1386 84.8697 70.0264 83.2404 70.0264C81.5756 70.0264 80.3359 69.1386 80.3359 66.582Z" fill="#58595B"/>
<path d="M88.125 63.9545H88.9397L89.0105 64.6292H89.0459C89.5772 64.1676 90.2502 63.8125 90.9232 63.8125C92.4462 63.8125 93.2609 65.0198 93.2609 66.8307C93.2609 68.8547 92.0566 70.0265 90.7107 70.0265C90.1794 70.0265 89.6126 69.778 89.0813 69.3518L89.1168 70.3816V72.4056H88.125V63.9545ZM92.2691 66.8307C92.2691 65.5169 91.8087 64.6292 90.7107 64.6292C90.2148 64.6292 89.7189 64.9133 89.1168 65.4459V68.5707C89.6481 69.0323 90.1794 69.1743 90.569 69.1743C91.5253 69.1743 92.2691 68.2866 92.2691 66.8307Z" fill="#58595B"/>
<path d="M94.2188 69.2098L94.7146 68.5351C95.2459 68.9612 95.7418 69.2453 96.4502 69.2453C97.2294 69.2453 97.6191 68.8192 97.6191 68.3221C97.6191 67.7185 96.9107 67.4344 96.2731 67.1858C95.4584 66.8662 94.5021 66.4756 94.5021 65.4814C94.5021 64.5227 95.2459 63.8125 96.5565 63.8125C97.3003 63.8125 97.9378 64.1321 98.3983 64.4872L97.9024 65.1263C97.4774 64.8067 97.0878 64.5937 96.5565 64.5937C95.8127 64.5937 95.4584 64.9843 95.4584 65.4459C95.4584 66.014 96.096 66.2271 96.769 66.4756C97.6191 66.7952 98.5754 67.1503 98.5754 68.2866C98.5754 69.2453 97.7962 70.062 96.4148 70.062C95.6001 70.0265 94.7855 69.6714 94.2188 69.2098Z" fill="#58595B"/>
<path d="M99.9963 61.1875H100.988V67.0819H101.024L103.538 63.9572H104.636L102.653 66.3363L104.884 69.8871H103.786L102.051 67.0464L100.953 68.3247V69.8871H99.9609V61.1875H99.9963Z" fill="#58595B"/>
<path d="M105.836 62.0767C105.836 61.6861 106.155 61.4375 106.544 61.4375C106.934 61.4375 107.253 61.6861 107.253 62.0767C107.253 62.4673 106.934 62.7158 106.544 62.7158C106.119 62.7158 105.836 62.4673 105.836 62.0767ZM106.013 63.9586H107.005V69.8886H106.013V63.9586Z" fill="#58595B"/>
<path d="M108.992 68.6798V61.1875H109.984V68.7864C109.984 69.1059 110.126 69.2125 110.267 69.2125C110.338 69.2125 110.374 69.2125 110.48 69.1769L110.621 69.9581C110.48 69.9936 110.303 70.0647 110.055 70.0647C109.311 70.0292 108.992 69.5675 108.992 68.6798Z" fill="#58595B"/>
<path d="M112.109 68.6798V61.1875H113.101V68.7864C113.101 69.1059 113.243 69.2125 113.384 69.2125C113.455 69.2125 113.491 69.2125 113.597 69.1769L113.739 69.9581C113.597 69.9936 113.42 70.0647 113.172 70.0647C112.428 70.0292 112.109 69.5675 112.109 68.6798Z" fill="#58595B"/>
<path d="M115.047 62.0767C115.047 61.6861 115.366 61.4375 115.755 61.4375C116.145 61.4375 116.464 61.6861 116.464 62.0767C116.464 62.4673 116.145 62.7158 115.755 62.7158C115.33 62.7158 115.047 62.4673 115.047 62.0767ZM115.224 63.9586H116.216V69.8886H115.224V63.9586Z" fill="#58595B"/>
<path d="M118.199 63.9545H119.014L119.085 64.8067H119.12C119.687 64.2386 120.289 63.8125 121.104 63.8125C122.344 63.8125 122.91 64.6292 122.91 66.1206V69.8845H121.919V66.2626C121.919 65.1618 121.6 64.7002 120.785 64.7002C120.183 64.7002 119.758 65.0198 119.156 65.6234V69.92H118.164V63.9545H118.199Z" fill="#58595B"/>
<path d="M124.438 71.025C124.438 70.5279 124.756 70.0308 125.323 69.6757V69.6402C125.004 69.4626 124.792 69.1431 124.792 68.6814C124.792 68.1843 125.146 67.7937 125.429 67.5807V67.5097C125.04 67.1901 124.65 66.6219 124.65 65.9118C124.65 64.5979 125.677 63.7812 126.881 63.7812C127.2 63.7812 127.519 63.8523 127.732 63.9233H129.786V64.7045H128.582C128.865 64.9885 129.078 65.4146 129.078 65.9118C129.078 67.1901 128.121 67.9713 126.917 67.9713C126.634 67.9713 126.315 67.9003 126.031 67.7582C125.819 67.9358 125.642 68.1488 125.642 68.4684C125.642 68.859 125.89 69.1075 126.669 69.1075H127.838C129.219 69.1075 129.892 69.5336 129.892 70.5279C129.892 71.6287 128.723 72.5874 126.881 72.5874C125.429 72.6229 124.438 72.0548 124.438 71.025ZM128.9 70.7054C128.9 70.1728 128.475 69.9598 127.696 69.9598H126.669C126.456 69.9598 126.173 69.9242 125.89 69.8887C125.465 70.1728 125.288 70.5279 125.288 70.883C125.288 71.5221 125.925 71.9127 126.988 71.9127C128.157 71.9127 128.9 71.3446 128.9 70.7054ZM128.121 65.9118C128.121 65.0596 127.554 64.5269 126.846 64.5269C126.138 64.5269 125.571 65.0596 125.571 65.9118C125.571 66.764 126.138 67.3321 126.846 67.3321C127.554 67.3321 128.121 66.7995 128.121 65.9118Z" fill="#58595B"/>
<path d="M133.539 61.8594H135.912C137.542 61.8594 138.675 62.4275 138.675 63.8124C138.675 64.5935 138.25 65.3037 137.506 65.5523V65.5878C138.462 65.7653 139.135 66.4045 139.135 67.5052C139.135 69.0676 137.896 69.8488 136.125 69.8488H133.539V61.8594ZM135.735 65.2682C137.081 65.2682 137.648 64.7711 137.648 63.9544C137.648 63.0312 137.01 62.6761 135.771 62.6761H134.531V65.2682H135.735ZM135.948 69.0676C137.329 69.0676 138.108 68.5705 138.108 67.5052C138.108 66.511 137.329 66.0494 135.948 66.0494H134.566V69.0676H135.948Z" fill="#58595B"/>
<path d="M140.617 61.1875H141.609V63.5666L141.574 64.7739C142.14 64.2412 142.742 63.7796 143.522 63.7796C144.761 63.7796 145.328 64.5963 145.328 66.0877V69.8516H144.336V66.2297C144.336 65.129 144.018 64.6673 143.203 64.6673C142.601 64.6673 142.176 64.9869 141.574 65.5906V69.8871H140.617V61.1875Z" fill="#58595B"/>
<path d="M146.891 68.3612C146.891 67.0828 147.989 66.4082 150.539 66.1596C150.539 65.3784 150.291 64.6683 149.299 64.6683C148.626 64.6683 147.989 64.9878 147.528 65.3074L147.139 64.6328C147.67 64.2777 148.52 63.8516 149.476 63.8516C150.928 63.8516 151.531 64.8103 151.531 66.3017V69.959H150.716L150.645 69.2489H150.61C150.043 69.7105 149.37 70.1011 148.662 70.1011C147.634 70.0301 146.891 69.4264 146.891 68.3612ZM150.503 68.4322V66.7988C148.52 67.0473 147.847 67.509 147.847 68.2901C147.847 68.9648 148.307 69.2489 148.874 69.2489C149.476 69.2134 149.937 68.9293 150.503 68.4322Z" fill="#58595B"/>
<path d="M153.375 63.9588H154.19L154.26 65.0241H154.296C154.721 64.2784 155.323 63.7812 155.996 63.7812C156.244 63.7812 156.457 63.8168 156.634 63.8878L156.457 64.7755C156.244 64.7045 156.102 64.669 155.89 64.669C155.394 64.669 154.792 65.0241 154.402 66.0183V69.8177H153.375V63.9588Z" fill="#58595B"/>
<path d="M157.234 68.3612C157.234 67.0828 158.332 66.4082 160.883 66.1596C160.883 65.3784 160.635 64.6683 159.643 64.6683C158.97 64.6683 158.332 64.9878 157.872 65.3074L157.482 64.6328C158.014 64.2777 158.864 63.8516 159.82 63.8516C161.272 63.8516 161.874 64.8103 161.874 66.3017V69.959H161.06L160.989 69.2489H160.953C160.387 69.7105 159.714 70.1011 159.005 70.1011C157.978 70.0301 157.234 69.4264 157.234 68.3612ZM160.883 68.4322V66.7988C158.899 67.0473 158.226 67.509 158.226 68.2901C158.226 68.9648 158.687 69.2489 159.253 69.2489C159.82 69.2134 160.316 68.9293 160.883 68.4322Z" fill="#58595B"/>
<path d="M163.925 68.0415V64.7747H163.039V64.029L163.96 63.958L164.066 62.2891H164.916V63.958H166.51V64.7747H164.916V68.077C164.916 68.7871 165.164 69.2132 165.837 69.2132C166.05 69.2132 166.333 69.1422 166.51 69.0712L166.687 69.8169C166.369 69.9234 165.944 70.0299 165.589 70.0299C164.35 70.0299 163.925 69.2488 163.925 68.0415Z" fill="#58595B"/>
<path d="M169.727 41.8781C172.745 41.8781 175.189 39.419 175.189 36.3883C175.189 33.3576 172.745 30.8984 169.727 30.8984C166.71 30.8984 164.266 33.3576 164.266 36.3883C164.266 39.419 166.71 41.8781 169.727 41.8781Z" stroke="#58595B" stroke-width="0.5"/>
<path d="M167.211 39.5325V33.5312H169.747C170.385 33.5312 170.848 33.5858 171.136 33.695C171.426 33.8014 171.658 33.9925 171.832 34.2681C172.006 34.5437 172.093 34.859 172.093 35.2137C172.093 35.664 171.961 36.0366 171.698 36.3313C171.434 36.6233 171.041 36.8075 170.517 36.8839C170.778 37.0368 170.992 37.2046 171.16 37.3875C171.331 37.5703 171.561 37.8951 171.848 38.3617L172.577 39.5325H171.136L170.265 38.2267C169.955 37.76 169.743 37.4666 169.629 37.3465C169.515 37.2237 169.395 37.1405 169.267 37.0968C169.139 37.0504 168.937 37.0272 168.66 37.0272H168.416V39.5325H167.211ZM168.416 36.0693H169.308C169.886 36.0693 170.247 36.0447 170.391 35.9956C170.535 35.9465 170.647 35.8619 170.729 35.7418C170.81 35.6217 170.851 35.4716 170.851 35.2915C170.851 35.0896 170.797 34.9272 170.688 34.8044C170.582 34.6788 170.432 34.5997 170.236 34.5669C170.138 34.5533 169.845 34.5465 169.357 34.5465H168.416V36.0693Z" fill="#58595B"/>
</svg>
